<mxfile host="app.diagrams.net" modified="2024-03-13T00:01:29.768Z" agent="Mozilla/5.0 (Windows NT 10.0; Win64; x64) AppleWebKit/537.36 (KHTML, like Gecko) Chrome/122.0.0.0 Safari/537.36" etag="-MPRu1N7Fuf57K6T6Pu0" version="24.0.5" type="github">
  <diagram name="Page-1" id="crU_duxgmzTfYiu8VtKf">
    <mxGraphModel dx="481" dy="671" grid="1" gridSize="10" guides="1" tooltips="1" connect="1" arrows="1" fold="1" page="1" pageScale="1" pageWidth="850" pageHeight="1100" math="0" shadow="0">
      <root>
        <mxCell id="0" />
        <mxCell id="1" parent="0" />
        <mxCell id="yZ__1cToAUe3bZfkRYNw-18" style="edgeStyle=orthogonalEdgeStyle;rounded=0;orthogonalLoop=1;jettySize=auto;html=1;entryX=0;entryY=0.5;entryDx=0;entryDy=0;exitX=1;exitY=0.5;exitDx=0;exitDy=0;" edge="1" parent="1" source="yZ__1cToAUe3bZfkRYNw-1" target="yZ__1cToAUe3bZfkRYNw-14">
          <mxGeometry relative="1" as="geometry" />
        </mxCell>
        <mxCell id="yZ__1cToAUe3bZfkRYNw-1" value="&lt;font style=&quot;font-size: 30px;&quot;&gt;Мигрант&lt;/font&gt;" style="rounded=0;whiteSpace=wrap;html=1;" vertex="1" parent="1">
          <mxGeometry x="240" y="360" width="160" height="90" as="geometry" />
        </mxCell>
        <mxCell id="yZ__1cToAUe3bZfkRYNw-2" value="&lt;font style=&quot;font-size: 22px;&quot;&gt;x&lt;sub&gt;1&lt;/sub&gt;&lt;/font&gt;" style="text;html=1;align=center;verticalAlign=middle;whiteSpace=wrap;rounded=0;" vertex="1" parent="1">
          <mxGeometry x="110" y="390" width="60" height="30" as="geometry" />
        </mxCell>
        <mxCell id="yZ__1cToAUe3bZfkRYNw-3" value="" style="endArrow=classic;html=1;rounded=0;exitX=1;exitY=0.5;exitDx=0;exitDy=0;entryX=0;entryY=0.5;entryDx=0;entryDy=0;" edge="1" parent="1" source="yZ__1cToAUe3bZfkRYNw-2" target="yZ__1cToAUe3bZfkRYNw-1">
          <mxGeometry width="50" height="50" relative="1" as="geometry">
            <mxPoint x="360" y="660" as="sourcePoint" />
            <mxPoint x="410" y="610" as="targetPoint" />
          </mxGeometry>
        </mxCell>
        <mxCell id="yZ__1cToAUe3bZfkRYNw-7" style="edgeStyle=orthogonalEdgeStyle;rounded=0;orthogonalLoop=1;jettySize=auto;html=1;entryX=0.25;entryY=0;entryDx=0;entryDy=0;" edge="1" parent="1" source="yZ__1cToAUe3bZfkRYNw-6" target="yZ__1cToAUe3bZfkRYNw-1">
          <mxGeometry relative="1" as="geometry">
            <mxPoint x="280" y="350" as="targetPoint" />
          </mxGeometry>
        </mxCell>
        <mxCell id="yZ__1cToAUe3bZfkRYNw-6" value="&lt;font style=&quot;font-size: 22px;&quot;&gt;w&lt;sub&gt;1&lt;/sub&gt;&lt;/font&gt;" style="text;html=1;align=center;verticalAlign=middle;whiteSpace=wrap;rounded=0;" vertex="1" parent="1">
          <mxGeometry x="250" y="290" width="60" height="30" as="geometry" />
        </mxCell>
        <mxCell id="yZ__1cToAUe3bZfkRYNw-9" style="edgeStyle=orthogonalEdgeStyle;rounded=0;orthogonalLoop=1;jettySize=auto;html=1;entryX=0.75;entryY=0;entryDx=0;entryDy=0;" edge="1" parent="1" source="yZ__1cToAUe3bZfkRYNw-8" target="yZ__1cToAUe3bZfkRYNw-1">
          <mxGeometry relative="1" as="geometry" />
        </mxCell>
        <mxCell id="yZ__1cToAUe3bZfkRYNw-8" value="&lt;font style=&quot;font-size: 22px;&quot;&gt;w&lt;/font&gt;&lt;font style=&quot;font-size: 18.3333px;&quot;&gt;&lt;sub&gt;2&lt;/sub&gt;&lt;/font&gt;" style="text;html=1;align=center;verticalAlign=middle;whiteSpace=wrap;rounded=0;" vertex="1" parent="1">
          <mxGeometry x="330" y="290" width="60" height="30" as="geometry" />
        </mxCell>
        <mxCell id="yZ__1cToAUe3bZfkRYNw-13" style="edgeStyle=orthogonalEdgeStyle;rounded=0;orthogonalLoop=1;jettySize=auto;html=1;entryX=0.5;entryY=1;entryDx=0;entryDy=0;" edge="1" parent="1" source="yZ__1cToAUe3bZfkRYNw-10" target="yZ__1cToAUe3bZfkRYNw-1">
          <mxGeometry relative="1" as="geometry" />
        </mxCell>
        <mxCell id="yZ__1cToAUe3bZfkRYNw-10" value="&lt;font style=&quot;&quot;&gt;&lt;span style=&quot;font-size: 22px;&quot;&gt;u&lt;sub&gt;1&lt;/sub&gt;&lt;/span&gt;&lt;/font&gt;" style="text;html=1;align=center;verticalAlign=middle;whiteSpace=wrap;rounded=0;" vertex="1" parent="1">
          <mxGeometry x="290" y="500" width="60" height="30" as="geometry" />
        </mxCell>
        <mxCell id="yZ__1cToAUe3bZfkRYNw-14" value="&lt;font style=&quot;&quot;&gt;&lt;span style=&quot;font-size: 22px;&quot;&gt;y&lt;sub&gt;1&lt;/sub&gt;&lt;/span&gt;&lt;/font&gt;" style="text;html=1;align=center;verticalAlign=middle;whiteSpace=wrap;rounded=0;strokeWidth=2;" vertex="1" parent="1">
          <mxGeometry x="460" y="320" width="60" height="30" as="geometry" />
        </mxCell>
        <mxCell id="yZ__1cToAUe3bZfkRYNw-15" value="&lt;font style=&quot;&quot;&gt;&lt;span style=&quot;font-size: 22px;&quot;&gt;y&lt;/span&gt;&lt;span style=&quot;font-size: 18.3333px;&quot;&gt;&lt;sub&gt;2&lt;/sub&gt;&lt;/span&gt;&lt;/font&gt;" style="text;html=1;align=center;verticalAlign=middle;whiteSpace=wrap;rounded=0;" vertex="1" parent="1">
          <mxGeometry x="460" y="390" width="60" height="30" as="geometry" />
        </mxCell>
        <mxCell id="yZ__1cToAUe3bZfkRYNw-16" value="&lt;font style=&quot;&quot;&gt;&lt;span style=&quot;font-size: 22px;&quot;&gt;y&lt;/span&gt;&lt;span style=&quot;font-size: 18.3333px;&quot;&gt;&lt;sub&gt;3&lt;/sub&gt;&lt;/span&gt;&lt;/font&gt;" style="text;html=1;align=center;verticalAlign=middle;whiteSpace=wrap;rounded=0;" vertex="1" parent="1">
          <mxGeometry x="460" y="460" width="60" height="30" as="geometry" />
        </mxCell>
        <mxCell id="yZ__1cToAUe3bZfkRYNw-19" value="" style="endArrow=classic;html=1;rounded=0;exitX=1;exitY=0.5;exitDx=0;exitDy=0;entryX=0;entryY=0.5;entryDx=0;entryDy=0;" edge="1" parent="1" source="yZ__1cToAUe3bZfkRYNw-1" target="yZ__1cToAUe3bZfkRYNw-15">
          <mxGeometry width="50" height="50" relative="1" as="geometry">
            <mxPoint x="420" y="420" as="sourcePoint" />
            <mxPoint x="470" y="370" as="targetPoint" />
          </mxGeometry>
        </mxCell>
        <mxCell id="yZ__1cToAUe3bZfkRYNw-22" value="" style="endArrow=classic;html=1;rounded=0;exitX=1;exitY=0.5;exitDx=0;exitDy=0;entryX=0;entryY=0.5;entryDx=0;entryDy=0;" edge="1" parent="1">
          <mxGeometry width="50" height="50" relative="1" as="geometry">
            <mxPoint x="400" y="405" as="sourcePoint" />
            <mxPoint x="460" y="475" as="targetPoint" />
            <Array as="points">
              <mxPoint x="420" y="405" />
              <mxPoint x="430" y="405" />
              <mxPoint x="430" y="410" />
              <mxPoint x="430" y="440" />
              <mxPoint x="430" y="475" />
            </Array>
          </mxGeometry>
        </mxCell>
        <mxCell id="yZ__1cToAUe3bZfkRYNw-33" style="edgeStyle=orthogonalEdgeStyle;rounded=0;orthogonalLoop=1;jettySize=auto;html=1;" edge="1" parent="1" source="yZ__1cToAUe3bZfkRYNw-23">
          <mxGeometry relative="1" as="geometry">
            <mxPoint x="560" y="400" as="targetPoint" />
          </mxGeometry>
        </mxCell>
        <mxCell id="yZ__1cToAUe3bZfkRYNw-23" value="&lt;font style=&quot;font-size: 22px;&quot;&gt;ц&lt;sub&gt;1&lt;/sub&gt;&lt;/font&gt;" style="rounded=0;whiteSpace=wrap;html=1;" vertex="1" parent="1">
          <mxGeometry x="460" y="315" width="60" height="40" as="geometry" />
        </mxCell>
        <mxCell id="yZ__1cToAUe3bZfkRYNw-24" value="&lt;font style=&quot;font-size: 18px;&quot;&gt;&lt;span style=&quot;&quot;&gt;y&lt;sub&gt;1&lt;/sub&gt;&lt;/span&gt;&lt;/font&gt;" style="text;html=1;align=center;verticalAlign=middle;whiteSpace=wrap;rounded=0;strokeWidth=2;" vertex="1" parent="1">
          <mxGeometry x="410" y="310" width="60" height="30" as="geometry" />
        </mxCell>
        <mxCell id="yZ__1cToAUe3bZfkRYNw-25" value="&lt;font style=&quot;font-size: 18px;&quot;&gt;&lt;span style=&quot;&quot;&gt;y&lt;/span&gt;&lt;span style=&quot;&quot;&gt;&lt;sub&gt;2&lt;/sub&gt;&lt;/span&gt;&lt;/font&gt;" style="text;html=1;align=center;verticalAlign=middle;whiteSpace=wrap;rounded=0;" vertex="1" parent="1">
          <mxGeometry x="410" y="380" width="60" height="30" as="geometry" />
        </mxCell>
        <mxCell id="yZ__1cToAUe3bZfkRYNw-26" value="&lt;font style=&quot;font-size: 18px;&quot;&gt;&lt;span style=&quot;&quot;&gt;y&lt;/span&gt;&lt;span style=&quot;&quot;&gt;&lt;sub&gt;3&lt;/sub&gt;&lt;/span&gt;&lt;/font&gt;" style="text;html=1;align=center;verticalAlign=middle;whiteSpace=wrap;rounded=0;" vertex="1" parent="1">
          <mxGeometry x="410" y="450" width="60" height="30" as="geometry" />
        </mxCell>
        <mxCell id="yZ__1cToAUe3bZfkRYNw-32" style="edgeStyle=orthogonalEdgeStyle;rounded=0;orthogonalLoop=1;jettySize=auto;html=1;" edge="1" parent="1" source="yZ__1cToAUe3bZfkRYNw-27">
          <mxGeometry relative="1" as="geometry">
            <mxPoint x="600" y="405" as="targetPoint" />
          </mxGeometry>
        </mxCell>
        <mxCell id="yZ__1cToAUe3bZfkRYNw-27" value="&lt;font style=&quot;font-size: 22px;&quot;&gt;ц&lt;/font&gt;&lt;font style=&quot;font-size: 18.3333px;&quot;&gt;&lt;sub&gt;2&lt;/sub&gt;&lt;/font&gt;" style="rounded=0;whiteSpace=wrap;html=1;" vertex="1" parent="1">
          <mxGeometry x="460" y="385" width="60" height="40" as="geometry" />
        </mxCell>
        <mxCell id="yZ__1cToAUe3bZfkRYNw-31" style="edgeStyle=orthogonalEdgeStyle;rounded=0;orthogonalLoop=1;jettySize=auto;html=1;" edge="1" parent="1" source="yZ__1cToAUe3bZfkRYNw-29">
          <mxGeometry relative="1" as="geometry">
            <mxPoint x="560" y="410" as="targetPoint" />
          </mxGeometry>
        </mxCell>
        <mxCell id="yZ__1cToAUe3bZfkRYNw-29" value="&lt;font style=&quot;font-size: 22px;&quot;&gt;ц&lt;/font&gt;&lt;font style=&quot;font-size: 18.3333px;&quot;&gt;&lt;sub&gt;3&lt;/sub&gt;&lt;/font&gt;" style="rounded=0;whiteSpace=wrap;html=1;" vertex="1" parent="1">
          <mxGeometry x="460" y="455" width="60" height="40" as="geometry" />
        </mxCell>
        <mxCell id="yZ__1cToAUe3bZfkRYNw-37" value="&lt;font style=&quot;font-size: 18px;&quot;&gt;&lt;span style=&quot;&quot;&gt;y&lt;/span&gt;&lt;/font&gt;" style="text;html=1;align=center;verticalAlign=middle;whiteSpace=wrap;rounded=0;" vertex="1" parent="1">
          <mxGeometry x="540" y="380" width="60" height="30" as="geometry" />
        </mxCell>
        <mxCell id="yZ__1cToAUe3bZfkRYNw-38" value="&lt;font style=&quot;font-size: 22px;&quot;&gt;ц&lt;/font&gt;" style="rounded=0;whiteSpace=wrap;html=1;" vertex="1" parent="1">
          <mxGeometry x="600" y="385" width="60" height="40" as="geometry" />
        </mxCell>
      </root>
    </mxGraphModel>
  </diagram>
</mxfile>
